<?xml version="1.0" encoding="UTF-8"?>
<svg width="989px" height="700px" viewBox="0 0 989 700" version="1.1" xmlns="http://www.w3.org/2000/svg" xmlns:xlink="http://www.w3.org/1999/xlink">
    <!-- Generator: Sketch 60 (88103) - https://sketch.com -->
    <title>home_bg</title>
    <desc>Created with Sketch.</desc>
    <defs>
        <path d="M307.890586,171.372341 L517.516999,171.395401 C537.644644,171.405637 553.960771,187.721764 553.971009,207.849408 L554.026876,715.444401 C554.037113,735.575178 537.719689,751.896194 517.588911,751.89841 C517.586237,751.89841 517.583563,751.89841 517.58089,751.890389 L307.954478,751.867329 C287.826833,751.857093 271.510706,735.540967 271.500468,715.413322 L271.4446,207.818329 C271.434364,187.687552 287.751788,171.366536 307.882566,171.36432 C307.885239,171.36432 307.887913,171.36432 307.890586,171.372341 Z" id="path-1"></path>
        <filter x="-25.5%" y="-6.9%" width="143.9%" height="121.4%" filterUnits="objectBoundingBox" id="filter-2">
            <feOffset dx="-10" dy="22" in="SourceAlpha" result="shadowOffsetOuter1"></feOffset>
            <feGaussianBlur stdDeviation="17" in="shadowOffsetOuter1" result="shadowBlurOuter1"></feGaussianBlur>
            <feColorMatrix values="0 0 0 0 0   0 0 0 0 0   0 0 0 0 0  0 0 0 0.241149476 0" type="matrix" in="shadowBlurOuter1"></feColorMatrix>
        </filter>
        <path d="M217.681375,120.753354 C217.681375,128.358314 223.846414,134.523353 231.451374,134.523353 L231.451374,134.523353 L342.386469,134.523353 C349.991429,134.523353 356.156468,128.358314 356.156468,120.753354 L356.156468,120.753354 L356.156468,114.43978 L390.765692,114.43978 C404.186211,114.43978 415.065691,125.31926 415.065691,138.739778 L415.065691,646.08961 C415.065691,659.510129 404.186211,670.389609 390.765692,670.389609 L182.295592,670.389609 C168.875073,670.389609 157.995593,659.510129 157.995593,646.08961 L157.995593,138.739778 C157.995593,125.31926 168.875073,114.43978 182.295592,114.43978 L217.681375,114.43978 Z" id="path-3"></path>
    </defs>
    <g id="Sito-Header" stroke="none" stroke-width="1" fill="none" fill-rule="evenodd">
        <g id="home_bg" transform="translate(-186.000000, -147.000000)">
            <rect id="Rectangle" x="147" y="0" width="1047" height="852"></rect>
            <g id="fb-header">
                <g id="Group-2">
                    <g id="base-copy" transform="translate(412.735738, 461.631365) rotate(-11.000000) translate(-412.735738, -461.631365) ">
                        <use fill="black" fill-opacity="1" filter="url(#filter-2)" xlink:href="#path-1"></use>
                        <use fill="#FFFFFF" fill-rule="evenodd" xlink:href="#path-1"></use>
                    </g>
                    <path d="M219.353789,782.052827 C231.175501,733.757808 865.460684,640.543333 983.213517,686.287421 C1100.96635,732.031508 987.761605,817.881195 740.995161,839.865115 C494.228717,861.849035 207.532077,830.347847 219.353789,782.052827 Z" id="Background-Shape" fill="#B1B5B7" transform="translate(624.500000, 760.500000) scale(-1, 1) rotate(180.000000) translate(-624.500000, -760.500000) "></path>
                    <g id="Scene/Home" transform="translate(397.698793, -0.000000)">
                        <g id="Background-Shape-2" opacity="0.345889137" transform="translate(0.000000, 423.837833)" fill="#000000" fill-opacity="0.1">
                            <path d="M22.992782,209.692904 C30.0562202,136.071995 397.493774,-7.11353133 465.415859,62.3889966 C533.337944,131.891525 515.6473,278.576417 372.763004,312.518758 C229.878709,346.461098 15.9293437,283.313814 22.992782,209.692904 Z" id="Background-Shape" transform="translate(263.235502, 182.905083) rotate(-11.000000) translate(-263.235502, -182.905083) "></path>
                        </g>
                        <g id="Lamp" transform="translate(581.692874, 262.061303)">
                            <path d="M60,38.6224042 L85.2200498,15.8432709 C88.2656844,13.0924074 92.8989263,13.0924074 95.9445609,15.8432709 L160.765552,74.3905777 C164.124251,77.4242058 166.041041,81.7383839 166.041041,86.2642824 L166.041041,460.058608 L166.041041,460.058608" id="Body" stroke="#CBCBCB" stroke-width="8"></path>
                            <rect id="Lamp-Base" fill="#AFB9C5" x="136.041041" y="459.058608" width="59" height="7" rx="3"></rect>
                            <g id="Lamp-Top" transform="translate(48.083261, 48.083261) rotate(45.000000) translate(-48.083261, -48.083261) translate(14.583261, 14.583261)">
                                <path d="M33.0303119,0.383901642 C51.2557087,0.383901642 66.0303119,15.1585049 66.0303119,33.3839016 L66.0303119,61.3839016 L66.0303119,61.3839016 L0.03031192,61.3839016 L0.03031192,33.3839016 C0.03031192,15.1585049 14.8049152,0.383901642 33.0303119,0.383901642 Z" id="Lamp" fill="#C5CFD6"></path>
                                <ellipse id="Lamp" fill="#F2F2F2" cx="33.2089288" cy="60.4454002" rx="33" ry="6.5"></ellipse>
                            </g>
                        </g>
                        <g id="Plant" transform="translate(482.146378, 428.119911)">
                            <g id="Succulents" transform="translate(11.000000, 0.000000)">
                                <path d="M3.38092413,0.208187006 C12.213925,21.197225 27.2292006,35.7805339 35.1818951,57.6048833 C39.8977667,70.5473636 41.863552,84.6195065 41.9827844,99.0319481 C42.0475621,106.860255 41.9112966,114.693588 41.8746494,122.521895 C41.8390346,130.156002 41.6315393,137.74129 40.9835037,145.326577 C40.3323712,152.952069 39.603299,160.486743 39.2817329,168.159259 C39.0313966,174.137461 38.9170678,181.09097 36.890634,186.544007 C35.2791907,190.880662 31.1834821,191.51603 30.0967128,186.256476 C29.4928087,183.332706 29.5689419,180.068279 29.6355262,177.063384 C29.7209502,173.208101 29.9452206,169.358561 30.0595494,165.503996 C30.5191876,150.036197 29.9232839,134.565527 30.2347849,119.091626 C30.5390596,103.9731 32.4823921,88.871087 30.3320805,73.8534305 C28.5564992,61.4519104 24.045542,50.802498 18.8615156,40.5931767 C13.873887,30.7708195 8.44546012,21.187174 5.07495258,10.0143908 C4.10715753,6.80560332 3.35898744,3.48051124 3,0.0301404047 C3.15691184,-0.0427294746 3.28388655,0.0164997376 3.38092413,0.208187006 Z" id="Thi-Succs!" fill="#69AC76"></path>
                                <path d="M0.973588404,41.6169557 C2.7226644,42.8799919 3.70001184,44.7275773 4.88222633,46.55055 C6.35238241,48.8169596 8.08078375,50.8630865 9.55056393,53.131137 C12.6152999,57.8596264 15.3078921,62.8785444 18.1016022,67.7986018 C23.4055915,77.1374401 27.4326388,87.0907728 29.4271794,97.8948808 C31.4946451,109.09156 32.052109,120.648403 32.9193169,132.012037 C33.8391512,144.05621 34.7653759,156.188167 34.8871684,168.278693 C34.9416743,173.695515 35.2345026,179.445837 34.5841907,184.824509 C34.1793433,188.173053 32.6682138,191.026883 29.2614062,191 C22.0249003,190.94238 18.6274903,182.927289 17.2080811,176.353675 C15.118813,166.674363 14.7019367,156.392862 15.0327312,146.494087 C15.432316,134.55821 17.5039166,122.801595 18.4004449,110.911661 C19.3499755,98.3247808 18.8135622,85.9602344 14.4861685,74.1088605 C12.2999174,68.1197961 9.76257314,62.2743052 7.48422591,56.3250312 C6.51402064,53.7919851 5.71936199,51.1900238 4.40896463,48.831317 C2.95121334,46.2076145 1.14161698,43.8259359 -3.0475622e-14,41 C0.324404167,41.2059254 0.649184237,41.4114405 0.973588404,41.6169557 Z" id="Thi-Succs!" fill="#69AC76"></path>
                                <path d="M84.3341427,16.5176702 C84.5560133,16.345237 84.7781571,16.1728402 85,16 C84.3609397,18.6926575 83.2065589,20.8798938 82.3241537,23.3413066 C81.5309592,25.5541267 81.1289139,28.058225 80.5946654,30.4769505 C79.3401416,36.1577567 77.8904265,41.7105156 76.7055048,47.4397171 C74.3598951,58.7767524 74.8035283,70.9901843 76.3418843,83.5681524 C77.7947507,95.4496261 80.092478,107.312713 81.1873452,119.191609 C82.0949201,129.04307 82.4850091,139.201741 81.6192928,148.601 C81.0309846,154.984369 79.1025548,162.605994 73.8481376,161.961759 C71.3744617,161.658503 70.0840672,158.681129 69.5641892,155.320205 C68.7291114,149.921644 68.5543005,144.245802 68.2287956,138.877693 C67.5023548,126.895908 67.3576487,114.950973 67.2142162,103.092499 C67.078414,91.904007 66.7045185,80.493842 67.4521172,69.5872699 C68.1731866,59.0630547 70.4284885,49.5797393 73.6530782,40.8297246 C75.3514544,36.2198206 76.9696914,31.5020505 78.8779164,27.1084404 C79.7930343,25.0009936 80.9110333,23.1387509 81.826535,21.0329683 C82.5626976,19.3391662 83.148338,17.6010976 84.3341427,16.5176702 Z" id="Thi-Succs!" fill="#476A4B"></path>
                                <path d="M3.20880772,76.3018223 C4.16572159,74.6953252 6.27206517,79.9934093 6.59263271,80.6597751 C6.45704992,80.3283084 6.32092787,79.9973172 6.18360206,79.666614 C8.08298767,82.8249267 9.82062484,86.1127294 10.9009829,89.7341519 C11.9700503,93.3191128 12.888301,96.9765376 13.89141,100.586979 C15.7735895,107.360999 18.2016657,113.942756 19.9069626,120.7778 C21.5685818,127.438224 21.9875459,133.985891 21.5852981,140.875198 C21.1672391,148.035491 20.9114736,155.305643 21.3991881,162.462075 C21.632116,165.880018 22.7427231,169.063767 23.5039187,172.354313 C24.2660416,175.648102 24.8662939,178.985809 25.7672782,182.238759 C25.974095,181.814996 26.0004407,183.231705 26,183.339248 C25.99434,184.151918 25.8808641,184.833382 25.6194022,185.603962 C24.9475372,187.585538 23.69062,189.268993 21.7779741,189.815552 C18.3215161,190.803119 15.1122443,187.659032 13.9975999,184.339008 C12.398575,179.575285 11.5174472,174.310953 10.7554023,169.304056 C10.0567643,164.712777 9.89144111,160.094092 10.0990013,155.439587 C10.5078659,146.260651 12.1689639,137.201885 12.618303,128.025744 C13.1073521,118.035719 11.1280407,108.649277 9.47082403,98.9248264 C8.67258323,94.2391921 7.90974363,89.5977685 6.35630439,85.1336672 C5.7273694,83.3259909 4.90736765,81.7307159 4.04759418,80.0614309 C3.55838288,79.1117083 2.56905129,77.4176151 3.20880772,76.3018223 Z" id="Thi-Succs!" fill="#69AC76"></path>
                                <path d="M31.2520927,60.6970481 C30.8556379,72.1418193 30.1720216,83.4997745 28.6461885,94.8239462 C27.0889362,106.380282 25.300327,117.896941 23.8019539,129.46349 C22.3433779,140.722452 20.8145443,152.168401 21.0183676,163.584496 C21.1684795,171.99346 19.7741408,186.218697 29.1133695,190.368969 C38.572085,194.57188 40.6010206,176.62338 41.2221153,170.699078 C42.4123367,159.332874 42.027006,147.846855 41.4493767,136.418583 C40.8563654,124.689401 39.8664321,113.01993 38.6395466,101.333567 C37.2768349,88.3528226 36.2076085,75.3135458 35.3494633,62.2958749 C34.92489,55.8569635 34.820295,49.4286586 34.9374389,42.9881759 C35.048171,36.9106701 34.8172608,30.7703111 32.6564941,25 C32.5432773,25.0821019 32.4308129,25.1642038 32.3175887,25.2459129" id="Thi-Succs!" fill="#476A4B"></path>
                                <path d="M80.0827466,96.9552251 C78.3816844,99.4332953 76.6669438,101.887253 75.0605101,104.512188 C72.1861393,109.208575 69.5869207,114.431593 68.8049844,121.146824 C67.1686355,135.200365 68.4814231,150.378956 68.7982735,164.862679 C68.863082,167.822444 68.4887518,170.692884 69.6553203,173.509621 C70.713019,176.063863 72.6905254,178.01037 74.5755064,178 C78.6108036,177.976942 77.9951288,168.09535 78.0017787,163.745849 C78.0139471,156.122577 77.1591232,148.422037 77.232697,140.805889 C77.3061571,133.260434 77.7650203,125.694154 78.8589994,118.527917 C79.96657,111.274547 81.5885624,104.309427 83.7291347,97.809562 C84.0261843,96.9075488 86.1579416,89.9374968 84.1438969,91.1387197" id="Thi-Succs!" fill="#476A4B"></path>
                                <path d="M62.262195,22 C59.6091513,22 59.625416,35.2259973 59.5456053,36.9248132 C59.257379,43.055394 59.3250857,49.1876151 59.1427693,55.3194261 C58.7437159,68.7008304 58.2535042,82.1995075 56.243485,95.4263249 C55.1613125,102.546754 53.9066581,109.63561 52.557063,116.701913 C51.2036854,123.788718 49.3869518,130.866913 48.4965519,138.043518 C47.6417075,144.942523 48.1247324,151.977253 48.2419898,158.910292 C48.3592472,165.885155 48.5699324,172.87396 49.4837837,179.787726 C49.7092206,181.494333 49.9736172,183.194789 50.256548,184.891145 C50.4921976,186.304569 50.3548929,188.057511 50.7535682,189.400818 C51.3928102,191.552324 54.1328514,192.256371 55.9779537,191.920134 C60.9704721,191.008604 64.1594958,184.739838 65.8650239,180.159637 C68.0429859,174.311167 69.1985389,167.967363 70.3389619,161.803978 C71.6310631,154.821324 72.3883191,147.732059 72.7434956,140.623111 C73.4655743,126.17518 72.5388625,111.711667 71.5039711,97.310071 C70.928275,89.3006645 70.263312,81.3265219 69.2458201,73.3667309 C68.2324891,65.4409736 66.9324447,57.5504802 66.0859217,49.6013503 C65.4708876,43.8246382 64.8649315,38.0401352 64.4666346,32.2412807 C64.3713156,30.8586094 64.2911267,22 62.262195,22" id="Thi-Succs!" fill="#69AC76"></path>
                                <path d="M58.9407927,118.138703 C58.5083549,104.252695 52.9265288,43.2589078 51.6565806,26.4671323 C51.3390091,22.2641696 48.2815387,4.76463908 47.8849122,-1.2490009e-14 C46.809561,1.346742 46.901454,22.3094454 46.9132785,27.1261944 C46.9257786,31.8908335 46.3348929,36.5764535 46.0308351,41.3154647 C45.7210339,46.1510074 38.5722965,108.600882 37.6445823,113.247206 C35.7989512,122.490734 34.5638007,131.976445 33.6110862,141.427558 C32.6830341,150.639478 31.2401108,160.357975 32.4820181,169.618161 C32.7674946,171.749969 33.2191894,173.847606 33.9546715,175.805999 C34.749276,177.922003 35.2938774,179.878687 35.9317231,182.09293 C36.9580872,185.659469 38.8148671,188.78948 41.667943,190.261798 C47.51734,193.280756 50.6582574,186.44667 52.2505069,180.496744 C54.7934439,170.994802 56.4255588,161.337812 57.190771,151.358766 C58.0374031,140.318301 59.2870808,129.255197 58.9407927,118.138703" id="Thi-Succs!" fill="#89CCA0"></path>
                            </g>
                            <g id="Planter" transform="translate(0.000000, 159.000000)">
                                <rect id="Vase" fill="#FFFFFF" x="10" y="0" width="91" height="91" rx="2"></rect>
                                <rect id="Leg" fill="#C5CFD6" x="0" y="10" width="10" height="113" rx="2"></rect>
                                <rect id="Leg" fill="#C5CFD6" x="50" y="10" width="10" height="113" rx="2"></rect>
                                <rect id="Leg" fill="#C5CFD6" x="101" y="10" width="10" height="113" rx="2"></rect>
                            </g>
                        </g>
                    </g>
                    <g id="cliente" transform="translate(826.818264, 469.107306) scale(-1, 1) translate(-826.818264, -469.107306) translate(653.318264, 219.607306)">
                        <g id="Head/Front/Top" transform="translate(124.872232, 87.267489) rotate(-27.000000) translate(-124.872232, -87.267489) translate(48.209987, 28.724484)">
                            <g id="Head" stroke-width="1" transform="translate(60.878842, 34.900638)" fill="#B28B67">
                                <path d="M43.0022676,10.2832285 C49.5352559,22.4434233 48.758967,53.2887657 40.3156618,55.4621317 C36.9484901,56.3288653 29.775421,54.2057211 22.4749028,49.8114619 L27.0572631,82.1853726 L0,82.1853726 L9.3143525,38.8294254 C4.11968997,32.7401974 0.603882947,25.2778309 1.1913948,16.916062 C2.88422558,-7.17717043 36.4692793,-1.87696627 43.0022676,10.2832285 Z"></path>
                            </g>
                            <path d="M58.62407,18.0132323 C67.9636411,18.0132323 75.5348594,25.5739812 75.5348594,34.9006377 L75.53281,34.660463 C89.1252508,29.9578675 106.764496,35.4529625 104.403994,46.4748826 C102.888253,53.5523541 94.6801375,57.0874342 86.6048003,60.8705593 C85.4161686,58.8097446 83.1491717,57.4171781 80.547971,57.4171781 C76.7146225,57.4171781 73.6070796,60.4414777 73.6070796,64.1721402 C73.6070796,65.5160499 74.0103398,66.7682962 74.7055215,67.8205228 C71.9888888,70.1799646 70.0720372,73.0204899 69.6084606,76.7045906 C65.2298931,76.7045906 58.1528627,63.8661808 60.4895624,51.6858735 C59.8781468,51.7535228 59.2551453,51.788043 58.62407,51.788043 C49.2844989,51.788043 41.7132806,44.2272941 41.7132806,34.9006377 C41.7132806,25.5739812 49.2844989,18.0132323 58.62407,18.0132323 Z" id="Hair" fill="#191847"></path>
                        </g>
                        <g id="Bottom/Standing/Sweatpants" transform="translate(7.891702, 229.668712)">
                            <polygon id="Leg" fill="#997659" points="144.305403 9.9475983e-14 185.602495 142.109665 205.026585 248.807772 224.522518 248.807772 205.061331 9.9475983e-14"></polygon>
                            <path d="M125.746068,0 C128.627641,73.8252337 127.491191,114.091522 126.84626,120.798866 C126.20133,127.506209 122.540011,172.427499 97.5906859,251.059426 L117.868172,251.059426 C150.90945,175.625527 162.443843,130.704238 166.233428,120.798866 C170.023012,110.893494 181.215347,70.6272051 197.555659,0 L125.746068,0 Z" id="Leg" fill="#B28B67"></path>
                            <path d="M143.41887,1.13686838e-13 C154.160888,48.9003251 172.739975,126.957665 199.156131,234.172021 L227.671152,234.172021 C229.777312,124.126739 220.817808,51.6985338 205.302184,1.13686838e-13 L143.41887,1.13686838e-13 Z" id="Pant" fill="#69A1AC"></path>
                            <path d="M125.601978,0 C128.424103,73.8252337 121.110389,146.557072 98.4551885,235.321442 L128.879148,235.321442 C161.981171,161.013371 185.706456,88.6404375 201.921113,0 L125.601978,0 Z" id="Pant" fill="#89C5CC"></path>
                            <g id="Accessories/Shoe/Flat-Simple" transform="translate(94.700421, 224.039577)" fill="#191847">
                                <path d="M0,41.6555998 L1.11884339,23.6423675 C7.66951414,25.5556262 15.8743656,24.8050748 25.7333979,21.3907134 C36.3944576,28.932009 49.8310157,34.067829 66.0430721,36.7981733 C67.1323139,36.981601 67.8666063,38.0133142 67.6831627,39.1025533 C67.6710015,39.1747631 67.6548838,39.2462506 67.6348823,39.3166927 L66.0117598,45.0330809 L66.0117598,45.0330809 L25.7333979,45.0330809 L2.23768677,45.0330809 L0,41.6555998 Z" id="Shoe"></path>
                            </g>
                            <g id="Accessories/Shoe/Flat-Simple" transform="translate(200.674701, 224.039577)" fill="#191847">
                                <path d="M0,41.6555998 L1.11884339,23.6423675 C7.66951414,25.5556262 15.8743656,24.8050748 25.7333979,21.3907134 C36.3944576,28.932009 49.8310157,34.067829 66.0430721,36.7981733 C67.1323139,36.981601 67.8666063,38.0133142 67.6831627,39.1025533 C67.6710015,39.1747631 67.6548838,39.2462506 67.6348823,39.3166927 L66.0117598,45.0330809 L66.0117598,45.0330809 L25.7333979,45.0330809 L2.23768677,45.0330809 L0,41.6555998 Z" id="Shoe"></path>
                            </g>
                        </g>
                        <g id="Body/Jacket-2" transform="translate(166.050653, 221.441685) rotate(-14.000000) translate(-166.050653, -221.441685) translate(21.745250, 116.176858)">
                            <path d="M58.069715,92.3178158 L81.1717893,96.8952535 C57.9387122,140.132881 45.4792303,163.048849 43.7933436,165.643157 C40.0000985,171.48035 43.539273,182.178219 44.8466292,187.811791 C36.6450092,189.718312 39.8794762,177.39094 29.5004846,179.964784 C20.0270223,182.314068 11.9946687,188.34317 3.16105315,180.211964 C2.07501203,179.21228 1.27997857,176.087551 4.9828429,174.484893 C14.2080283,170.492086 27.8374628,163.015636 30.0474767,160.112976 C33.0612255,156.154681 42.4019716,133.556294 58.069715,92.3178158 Z M286.568172,57.7044535 C282.93581,63.0025613 279.353716,68.7385105 280.805112,70.595317 C282.256509,72.4521235 286.460888,70.4027148 288.121909,73.4222463 C289.229257,75.4352674 282.142188,77.843261 266.860703,80.6462272 L236.266209,104.070647 L223.22242,87.3834146 L264.072763,69.4682263 C271.22879,62.3471995 278.138955,56.9348897 284.803256,53.2312971 C286.796009,52.5977483 290.200534,52.4063457 286.568172,57.7044535 Z" id="Skin" fill="#B28B67"></path>
                            <path d="M138.99128,11.1269475 L148.557297,8.61386039 C171.502685,27.2539443 184.441627,75.7271806 199.108471,81.0100785 C212.975378,86.0048447 231.347089,78.3901674 253.100493,68.3754962 L261.320534,83.1188446 C242.844262,106.949084 201.003343,129.376899 182.452738,120.286023 C152.794177,105.751603 140.978705,45.6046542 138.99128,11.1269475 Z" id="Coat-Back" fill="#2F3676" transform="translate(200.155907, 65.483817) rotate(5.000000) translate(-200.155907, -65.483817) "></path>
                            <path d="M101.464737,128.34428 C140.553187,128.34428 169.305833,128.34428 187.722672,128.34428 C191.66422,128.34428 190.92151,122.660697 190.351736,119.79273 C183.775848,86.6929209 158.106078,51.0129285 158.106078,3.89618368 L133.225229,0 C112.64557,33.0524877 105.528767,73.7467923 101.464737,128.34428 Z" id="Shirt" fill="#DDE3E9"></path>
                            <path d="M141.471603,0 C163.807966,76.0349207 169.965706,126.697137 159.944823,151.986648 L159.944823,151.986648 L82.2991752,151.986648 C83.5276901,133.480681 87.4669664,113.909872 92.8624776,94.8280902 C75.2780119,126.505362 60.496958,149.310634 48.5198115,163.244918 L30.439421,159.708493 C42.0859862,87.5788408 75.8128847,34.3426765 131.620117,-9.9475983e-14 Z" id="Coat-Front" fill="#2F3676"></path>
                        </g>
                    </g>
                    <g id="Group-4" transform="translate(58.006940, 8.885845)">
                        <g id="Group" transform="translate(376.120567, 396.901222) rotate(-11.000000) translate(-376.120567, -396.901222) translate(59.620567, 54.901222)">
                            <rect id="base" fill="#F2F2F2" x="144.502521" y="101.828199" width="282.662855" height="581.510741" rx="36.4499981"></rect>
                            <mask id="mask-4" fill="white">
                                <use xlink:href="#path-3"></use>
                            </mask>
                            <use id="Mask" fill="#C1DEE2" xlink:href="#path-3"></use>
                            <g id="gamba-da-mascherare" mask="url(#mask-4)">
                                <g transform="translate(200.351722, 364.035358) rotate(27.000000) translate(-200.351722, -364.035358) translate(90.851722, 249.035358)">
                                    <path d="M154.255832,1.13686838e-13 C145.673541,53.3133319 129.120651,121.427285 127.558504,123.529302 C126.517073,124.930646 89.0252915,137.468271 15.0831586,161.142177 L18.2550486,174.064379 C106.430869,161.36791 152.892006,151.517468 157.638461,144.513051 C164.758143,134.006426 200.307675,51.0038565 214.076673,1.13686838e-13 L154.255832,1.13686838e-13 Z" id="Leg" fill="#B28B67"></path>
                                    <path d="M41.0750676,149.971922 L46.6620064,170.784062 C112.612382,176.556593 153.021634,172.385577 167.889762,158.271015 C182.75789,144.156453 199.703168,91.3994476 218.725594,-2.84217094e-14 L142.460776,-2.84217094e-14 C130.408614,74.8438492 123.670671,113.836705 122.246948,116.978567 C120.823224,120.120429 93.7659305,131.118214 41.0750676,149.971922 Z" id="Pant" fill="#FF9B21"></path>
                                    <g id="Accessories/Shoe/Flat-Sneaker" fill="none" transform="translate(31.126613, 188.074806) rotate(80.000000) translate(-31.126613, -188.074806) translate(-6.197647, 163.649507)">
                                        <path d="M3.45270017,30.5600963 C1.96673087,34.4399224 1.22374622,37.3230674 1.22374622,39.2095313 C1.22374622,41.4118216 1.59137697,44.6255108 2.32663847,48.850599 C4.88664038,48.850599 27.8938086,48.850599 71.3481431,48.850599 C73.1417674,42.9329685 72.1063834,39.7382301 68.2419914,39.266384 C64.3775993,38.794538 61.1673831,38.3684987 58.6113429,37.9882663 L26.3195091,23.6215946 C25.8149105,23.3970982 25.2238621,23.6241658 24.9993657,24.1287645 C24.9957243,24.136949 24.9921931,24.1451822 24.9887731,24.1534616 L22.8390365,29.3576163 L22.8390365,29.3576163 C19.2616202,31.0233694 16.354598,31.8562459 14.11797,31.8562459 C12.2219888,31.8562459 9.57230805,31.0589465 6.16892783,29.4643478 L6.16891875,29.4643672 C5.16870404,28.9957328 3.97796656,29.4266637 3.50933215,30.4268784 C3.48885346,30.4705865 3.46996376,30.5150215 3.45270017,30.5600963 Z" id="shoe" fill="#E4E4E4"></path>
                                    </g>
                                </g>
                            </g>
                            <path d="M174.155994,740.857877 C206.619459,647.892131 416.428583,393.168913 416.712732,465.346711 C416.995379,537.52451 337.102189,714.132626 264.234888,786.172237 C191.367588,858.211849 141.69253,833.823622 174.155994,740.857877 Z" id="Background-Shape" fill="#FAE3D1" mask="url(#mask-4)" transform="translate(290.367168, 640.379661) scale(-1, 1) rotate(71.000000) translate(-290.367168, -640.379661) "></path>
                            <g id="negoziante" transform="translate(316.390239, 320.836456) rotate(43.000000) translate(-316.390239, -320.836456) translate(130.390239, 56.836456)">
                                <g id="Head/Front/Rad" transform="translate(144.414223, 75.180102) rotate(-8.000000) translate(-144.414223, -75.180102) translate(61.199480, 11.671112)">
                                    <g id="Head" stroke-width="1" transform="translate(66.082296, 37.861128)" fill="#D4A181">
                                        <path d="M46.67777,11.1555163 C53.7691477,24.347215 52.9265077,57.8090525 43.7615338,60.166777 C40.1064622,61.1070581 32.3199684,58.8036638 24.3952338,54.0363908 L29.3699094,89.1568505 L0,89.1568505 L10.110672,42.1234153 C4.47189978,35.5176179 0.655490648,27.4221623 1.29322605,18.3509883 C3.13074695,-7.78598296 39.5863922,-2.0361823 46.67777,11.1555163 Z"></path>
                                    </g>
                                    <path d="M116.753489,47.5116869 C117.70211,46.5734836 118.21956,45.2343563 118.667175,43.9627991 C119.132025,42.6419012 119.583695,41.307392 119.892318,39.9325352 C120.509001,37.1854953 120.514858,34.0263508 118.551273,31.893275 C116.976508,30.1827553 114.613629,29.4155432 112.432882,29.2488055 C110.979989,29.1376065 109.487786,29.3406814 108.095041,29.7976301 C106.713222,30.250933 105.522095,31.1543791 104.182514,31.7151136 C104.131378,28.7547904 103.623276,25.657261 102.118458,23.1295808 C100.670409,20.6975439 98.3617075,19.332774 95.7324437,18.9717115 C93.033796,18.6011698 90.3689392,19.2314189 87.953008,20.5353028 C87.3481523,20.861851 86.7489284,21.2039549 86.1754982,21.5911461 C85.6953306,21.9153853 85.1961275,22.3058577 84.6327219,22.4377166 C84.0046631,22.5848882 83.693337,22.2228535 83.2851439,21.7655401 C82.8065532,21.2293545 82.2673644,20.7570931 81.69675,20.3384259 C79.173702,18.4875403 75.8633278,17.7265261 72.9403091,18.8359637 C71.5935196,19.3471144 70.2838999,20.2151956 69.3701961,21.4114048 C68.5557247,22.4776996 67.9747478,24.1691393 66.8506398,24.9120456 C66.3736261,25.2274132 66.0367316,24.8095967 65.6024069,24.5007917 C64.9500187,24.0367943 64.3278171,23.5247929 63.6675444,23.0734345 C62.740099,22.4392965 61.7359484,21.9649691 60.6606118,21.7166855 C59.0864101,21.3531925 56.910957,21.4383842 56.4608632,23.4961121 C56.2919091,24.2690361 56.4214406,25.0956758 56.4760691,25.8744332 C56.5509721,26.9437663 56.6291415,28.0127347 56.7221789,29.0804879 C56.7928017,29.8912074 56.8821221,30.6742183 57.0354198,31.4703543 C57.1171936,31.8947333 57.3731028,32.6858867 57.190745,33.1108733 C56.9628822,33.6420763 55.9111992,33.3400769 55.4618939,33.3585493 C54.5744343,33.3951295 53.6832577,33.5504435 52.8627039,33.9288846 C52.2267606,34.2222554 51.5581529,34.6536831 51.2897411,35.3811553 C51.1247293,35.8280172 51.1682068,36.2870319 51.2461509,36.7467759 C51.3396389,37.2985172 51.2327473,37.5911589 51.1629129,38.1478829 C49.970998,37.5621134 45.8406332,36.2606601 45.3209303,38.3925206 C45.1479213,39.1023711 45.5419223,39.904462 45.842548,40.5031135 C46.3697975,41.5531235 47.061045,42.5128375 47.7677238,43.4280718 C49.241792,45.3374128 51.001618,46.9842514 52.8950304,48.3926501 C50.676663,49.3769129 50.0976009,52.2801175 52.0182712,54.0098388 C52.8663082,54.7735266 54.0065232,54.9435456 55.076228,54.8946909 C55.467751,54.8768262 56.0321703,54.7266164 56.34023,54.7946726 C56.5060303,54.8312528 56.6835447,54.9714972 56.9132097,54.9871744 C58.422871,55.0903525 60.1270547,54.7273456 61.6028126,54.3930195 C64.2324143,53.7972847 66.7218968,52.5539222 68.7548653,50.6602584 C69.2763703,50.1745073 69.7072033,49.8948692 70.4091513,49.9020394 C71.0242569,49.9082374 71.6277609,50.076555 72.2423033,50.0921107 C73.8683177,50.1335521 75.3343888,49.3402112 76.8442754,48.812168 C76.9367496,50.8478991 77.5176138,53.0899863 78.3520218,54.9214273 C79.0324563,56.4148963 80.4533604,56.631947 81.8495972,56.7629552 C86.3144911,57.18223 90.7951541,56.7143436 95.2656798,56.7205416 C90.9380892,57.6967835 86.4662119,58.0991657 82.1770302,59.2479787 C80.2382255,59.7671503 81.718714,61.0712773 82.5477155,61.975331 C83.9127521,63.4640604 84.9277158,65.3086264 85.6316912,67.251874 C87.7486862,64.4977854 91.4905692,62.6831154 94.8056741,63.5291999 C98.4685991,64.4638789 101.047853,69.4075542 98.7055854,72.9616677 C97.3457301,75.0248644 94.8900385,75.821365 92.8467075,76.707797 C94.4407332,78.3618057 94.8262865,80.8046587 95.7857205,82.8623866 C96.2589047,83.8771531 96.9231196,85.0245078 97.9813355,85.378157 C98.3728585,85.5090436 98.8319631,85.5202243 99.1408112,85.8387516 C99.523436,86.233113 99.6145585,86.6740199 100.103174,87.0129641 C102.052904,88.3658242 105.098471,88.2615523 106.826646,86.4961016 C108.389472,84.8994545 107.982856,82.3728681 106.677629,80.7541027 C108.755314,79.889789 112.540562,78.7781638 111.714827,75.5476818 C116.21689,75.2493283 127.147771,67.9622106 121.105296,62.637299 C124.421415,60.7668473 127.467995,56.1956581 125.337934,52.1661234 C123.697728,49.0632468 119.883195,47.6762371 116.753489,47.5116869" id="hair" fill="#191847" transform="translate(85.662236, 53.127712) scale(-1, 1) translate(-85.662236, -53.127712) "></path>
                                </g>
                                <g id="Bottom/Skinny-Jeans-1" transform="translate(124.084003, 235.591164)">
                                    <polygon id="Leg" fill="#997659" points="24.8046637 -2.84217094e-14 115.736856 151.713973 183.909839 279.97535 198.593694 279.97535 84.3689052 5.9324845e-13"></polygon>
                                    <g id="Accessories/Shoe/Flat-Sneaker" transform="translate(171.654210, 243.031730)" fill="#E4E4E4">
                                        <path d="M3.45270017,30.5600963 C1.96673087,34.4399224 1.22374622,37.3230674 1.22374622,39.2095313 C1.22374622,41.4118216 1.59137697,44.6255108 2.32663847,48.850599 C4.88664038,48.850599 27.8938086,48.850599 71.3481431,48.850599 C73.1417674,42.9329685 72.1063834,39.7382301 68.2419914,39.266384 C64.3775993,38.794538 61.1673831,38.3684987 58.6113429,37.9882663 L26.3195091,23.6215946 C25.8149105,23.3970982 25.2238621,23.6241658 24.9993657,24.1287645 C24.9957243,24.136949 24.9921931,24.1451822 24.9887731,24.1534616 L22.8390365,29.3576163 L22.8390365,29.3576163 C19.2616202,31.0233694 16.354598,31.8562459 14.11797,31.8562459 C12.2219888,31.8562459 9.57230805,31.0589465 6.16892783,29.4643478 L6.16891875,29.4643672 C5.16870404,28.9957328 3.97796656,29.4266637 3.50933215,30.4268784 C3.48885346,30.4705865 3.46996376,30.5150215 3.45270017,30.5600963 Z" id="shoe"></path>
                                    </g>
                                    <path d="M164.976297,259.436847 L193.293853,250.887992 C180.88716,213.873876 165.680996,173.141198 147.675361,128.689958 C129.669726,84.238718 110.332343,41.3420654 89.6632135,-1.42108547e-14 L9.68414478,-1.42108547e-14 C32.6637725,52.2958144 57.0252594,99.8132747 82.7686054,142.552381 C108.511951,185.291487 135.914515,224.252976 164.976297,259.436847 Z" id="Pant" fill="#E87613"></path>
                                </g>
                                <g id="Body/Pointing-Forward" transform="translate(171.569033, 226.472627) rotate(-8.000000) translate(-171.569033, -226.472627) translate(14.929517, 112.278578)">
                                    <path d="M291.93247,56.6790649 C297.23471,55.5896388 310.175963,45.9837922 312.405805,47.934142 C315.704713,50.8195589 312.763204,59.6794608 309.297408,64.0867875 C302.819839,72.3240758 297.45669,75.1409798 284.200837,78.8297326 C277.269993,80.758403 269.776524,84.6242567 261.720431,90.4272938 L260.657946,71.7405357 L279.31582,61.5111511 C281.933784,51.5691903 285.063241,46.5670537 288.704191,46.5047412 C291.501198,45.2058951 286.63023,57.768491 291.93247,56.6790649 Z M259.819436,14.0959509 C256.393534,20.164567 253.063468,26.7016113 254.80883,28.5712206 C256.554192,30.4408299 260.90641,27.8290681 262.988601,30.9354398 C264.376728,33.0063543 256.941309,36.2778162 240.682343,40.7498254 L209.818378,68.9532269 L194.132702,52.1509351 L236.608666,28.9330123 C243.672159,20.5616731 250.631666,14.0601553 257.487189,9.42845893 C259.582017,8.55563199 263.245339,8.02733476 259.819436,14.0959509 Z" id="Skin" fill="#BA8B72"></path>
                                    <path d="M174.820302,42.432231 C189.539487,44.6047043 209.625442,44.6108405 232.631724,34.6768065 L237.948372,54.2525522 C221.263846,66.2527598 199.126172,74.7773279 181.473453,71.4719709 C167.562137,68.8671673 163.092301,50.867499 174.820302,42.432231 Z" id="Sleeve" fill="#476A4B" transform="translate(203.018195, 53.433042) rotate(-9.000000) translate(-203.018195, -53.433042) "></path>
                                    <path d="M174.437375,-1.42108547e-13 C176.310867,24.0222591 185.740661,50.496866 193.479462,76.6518428 C209.272586,80.5835361 235.759675,75.9475708 272.939381,62.7437315 C282.161215,81.7843348 286.424237,95.3588246 285.728449,103.467201 C253.830854,120.096328 226.492407,127.509303 203.969882,127.997088 L203.977666,127.99109 C204.694129,141.329908 203.067919,154.022081 197.603115,165.61919 C186.37004,189.45741 120.594142,167.38056 98.4782699,171.725823 C84.6286603,126.836392 111.4073,108.593509 111.428846,79.8706341 C111.452442,48.4160258 136.759037,-1.42108547e-13 140.482396,-1.42108547e-13 L140.482396,-1.42108547e-13 Z" id="Clothes" fill="#69AC76"></path>
                                </g>
                            </g>
                        </g>
                    </g>
                    <g id="A_perfect_SVG_heart" transform="translate(611.869801, 238.648402)" fill="#FF0000" fill-rule="nonzero">
                        <g id="heart-link" transform="translate(50.887371, 51.439695) rotate(-135.000000) translate(-50.887371, -51.439695) translate(14.887371, 15.939695)">
                            <g id="heart">
                                <path d="M-5.43669135e-14,47.3311816 L-5.43669135e-14,0 L47.6539648,0 C60.8132436,0 71.4809468,10.595446 71.4809468,23.6655908 C71.4809468,36.7357355 60.8132436,47.3311814 47.6539648,47.3311816 C47.6539648,60.4013264 36.9862614,70.9967723 23.8269824,70.9967723 C10.6677034,70.9967723 -5.43669135e-14,60.4013264 -5.43669135e-14,47.3311816 Z" id="Path"></path>
                            </g>
                        </g>
                    </g>
                </g>
            </g>
        </g>
    </g>
</svg>